<svg width="40" height="40" viewBox="0 0 40 40" fill="none" xmlns="http://www.w3.org/2000/svg">
<path fill-rule="evenodd" clip-rule="evenodd" d="M22.1873 16.2433C22.0861 16.3165 22.0107 16.42 21.972 16.5388C21.9334 16.6576 21.9334 16.7857 21.9721 16.9044L22.9963 20.0554L20.3159 18.1083C20.2148 18.0346 20.0929 17.9948 19.9678 17.9948C19.8427 17.9948 19.7208 18.0346 19.6197 18.1083L16.9393 20.0554L17.9636 16.9044C18.0024 16.7856 18.0026 16.6575 17.964 16.5385C17.9254 16.4196 17.85 16.316 17.7487 16.2426L15.068 14.2953H18.3811C18.5061 14.2955 18.628 14.256 18.7292 14.1825C18.8304 14.109 18.9057 14.0053 18.9441 13.8863L19.968 10.735L20.9915 13.8863C21.0302 14.0052 21.1055 14.1088 21.2066 14.1823C21.3078 14.2558 21.4296 14.2953 21.5547 14.2953H24.868L22.1873 16.2433ZM26.4707 13.7748C26.4322 13.6558 26.357 13.5521 26.2559 13.4786C26.1547 13.4051 26.0329 13.3656 25.9079 13.3658H21.8003L20.5307 9.45924C20.3543 8.9159 19.5815 8.91624 19.4049 9.45924L18.136 13.3658H14.0281C13.4576 13.3658 13.2192 14.1014 13.6804 14.4363L17.0036 16.851L15.7341 20.7576C15.6096 21.1406 15.9025 21.5325 16.2966 21.5325C16.4186 21.5325 16.5405 21.4948 16.6449 21.419L19.9681 19.0046L23.2913 21.419C23.3924 21.4926 23.5142 21.5322 23.6393 21.5321C23.7643 21.532 23.8861 21.4923 23.9872 21.4187C24.0883 21.3454 24.1636 21.2419 24.2021 21.123C24.2407 21.0042 24.2405 20.8762 24.2016 20.7575L22.9328 16.8503L26.2553 14.4362C26.3567 14.363 26.4321 14.2595 26.4708 14.1406C26.5095 14.0217 26.5095 13.8936 26.4707 13.7748ZM25.0949 29.7505C24.7268 29.5383 24.2557 29.6634 24.0435 30.0319L22.8062 32.1744L21.1345 25.935C22.7189 25.7556 24.1924 25.2043 25.4646 24.3707L27.2378 30.9875L25.0949 29.7505ZM10.9295 16C10.9295 21.0013 14.9988 25.0706 20.0005 25.0706C25.0015 25.0706 29.0708 21.0013 29.0708 16C29.0708 10.9987 25.0015 6.92969 20.0005 6.92969C14.9988 6.92969 10.9295 10.9987 10.9295 16ZM17.1942 32.1744L15.9574 30.0322C15.745 29.6641 15.2734 29.5381 14.9057 29.7499L12.7631 30.9875L14.5357 24.3707C15.8086 25.2044 17.2814 25.7557 18.8658 25.935L17.1942 32.1744ZM26.2696 23.7844C28.543 21.9498 30.0001 19.1425 30.0001 16C30.0001 10.4857 25.5144 6 20.0005 6C14.4862 6 10.0001 10.4857 10.0001 16C10.0001 19.1424 11.4572 21.9498 13.7306 23.7844L11.651 31.5458C11.5157 32.0496 12.0605 32.4664 12.5109 32.206L15.2316 30.6354L16.8029 33.3561C17.0629 33.8065 17.7429 33.7191 17.8779 33.2144L19.8116 25.9981H20.1887L22.122 33.2144C22.2572 33.7189 22.9372 33.8068 23.1974 33.3561L24.7686 30.6354L27.4893 32.206C27.9401 32.4665 28.4843 32.0488 28.3498 31.5458L26.2696 23.7844Z" fill="#997EE7"/>
</svg>
