<svg width="25" height="25" viewBox="0 0 25 25" fill="none" xmlns="http://www.w3.org/2000/svg">
<path d="M14.4669 1.86628L14.4361 1.90566L14.4669 1.86628C13.9065 1.42787 13.2136 1.18946 12.4998 1.18946C11.7861 1.18946 11.0931 1.42787 10.5328 1.86628L10.5636 1.90566L10.5328 1.86628L2.40651 8.22466L2.40649 8.22467C2.03028 8.51933 1.72625 8.89464 1.51726 9.32247C1.30826 9.7503 1.19972 10.2195 1.19982 10.6949V20.6636C1.19982 21.4985 1.53443 22.2991 2.12991 22.8893C2.72537 23.4795 3.5329 23.811 4.37482 23.811H20.6248C21.4667 23.811 22.2743 23.4795 22.8697 22.8893C23.4652 22.2991 23.7998 21.4985 23.7998 20.6636V10.6949C23.7998 10.2194 23.691 9.75012 23.4818 9.32228C23.2726 8.89445 22.9683 8.51919 22.5919 8.22466L14.4669 1.86628ZM9.81938 0.972447L9.78857 0.933071L9.81938 0.972445C10.5827 0.375005 11.5271 0.05 12.4998 0.05C13.4726 0.05 14.4169 0.375005 15.1803 0.972445L15.2111 0.933071L15.1803 0.972447L23.3053 7.33082C23.818 7.73209 24.2323 8.24325 24.5171 8.82588C24.8019 9.40851 24.9498 10.0475 24.9498 10.6949V20.6636C24.9498 21.8003 24.4943 22.8905 23.6832 23.6944C22.8722 24.4983 21.772 24.95 20.6248 24.95H4.37482C3.22761 24.95 2.12748 24.4983 1.31642 23.6944C0.505377 22.8905 0.0498169 21.8003 0.0498169 20.6636V10.6949C0.0497975 10.0475 0.19774 9.40851 0.482556 8.82588C0.767373 8.24325 1.18167 7.73209 1.69438 7.33082L9.81938 0.972447Z" fill="#997EE7" stroke="#EBE5FA" stroke-width="0.1"/>
</svg>
