<svg width="40" height="40" viewBox="0 0 40 40" fill="none" xmlns="http://www.w3.org/2000/svg">
<path d="M32.7399 28.0825L32.7399 28.0823C32.7 27.5061 32.6192 26.8756 32.4997 26.2082C32.3795 25.5373 32.2249 24.9047 32.0404 24.3279C31.8509 23.7356 31.5934 23.15 31.2742 22.5883L31.2742 22.5882C30.945 22.0081 30.5598 21.5058 30.13 21.0943L30.1299 21.0943C29.6847 20.6678 29.1371 20.3224 28.4993 20.0693C27.8681 19.8194 27.1652 19.6914 26.409 19.6914C26.1672 19.6914 25.9152 19.7855 25.3452 20.157C24.9386 20.4221 24.5308 20.6853 24.1217 20.9467L24.1216 20.9468C23.7096 21.2096 23.1605 21.4505 22.4945 21.6659M32.7399 28.0825L22.4329 21.4756M32.7399 28.0825C32.7796 28.6488 32.7998 29.2404 32.8 29.8405L32.7399 28.0825ZM22.4945 21.6659L22.4329 21.4756M22.4945 21.6659C22.4945 21.6659 22.4945 21.6659 22.4946 21.6659L22.4329 21.4756M22.4945 21.6659C21.8348 21.8796 21.1634 21.9885 20.4991 21.9885C19.8352 21.9885 19.1638 21.8796 18.5036 21.6659M22.4329 21.4756C21.7921 21.6832 21.1415 21.7885 20.4991 21.7885C19.8572 21.7885 19.2065 21.6832 18.5652 21.4756M18.5036 21.6659L18.5652 21.4756M18.5036 21.6659C18.5036 21.6659 18.5036 21.6659 18.5036 21.6659L18.5652 21.4756M18.5036 21.6659C17.8384 21.4507 17.289 21.2098 16.8776 20.9469L16.8775 20.9469C16.4224 20.6557 16.0104 20.3899 15.6529 20.1567C15.0834 19.7852 14.8313 19.6911 14.5896 19.6911C13.8331 19.6911 13.1306 19.8193 12.4995 20.0696L12.4995 20.0696C11.8622 20.3222 11.3144 20.6675 10.8687 21.0945C10.4388 21.5063 10.0536 22.0083 9.72465 22.5882L9.55069 22.4895L9.72465 22.5882C9.40591 23.15 9.1482 23.7354 8.95866 24.3281L18.5652 21.4756M8.49956 26.2082L8.49955 26.2083C8.37989 26.8746 8.29932 27.5053 8.2594 28.083L8.25939 28.0831C8.21993 28.6511 8.2 29.2427 8.2 29.8407C8.2 31.3613 8.68108 32.5734 9.61579 33.4647C10.5409 34.3462 11.7697 34.7999 13.2858 34.7999H27.7142C29.2299 34.7999 30.4587 34.3461 31.3841 33.4647C32.3189 32.5741 32.8 31.3616 32.8 29.8406L8.49956 26.2082ZM8.49956 26.2082C8.6198 25.5374 8.77434 24.905 8.95864 24.3281L8.49956 26.2082ZM24.959 22.2599C25.4297 21.9588 25.8341 21.6978 26.1951 21.4621C26.3725 21.3465 26.482 21.2838 26.5435 21.2511C27.0483 21.2645 27.5131 21.3542 27.9268 21.5181C28.3738 21.6953 28.7533 21.9317 29.0544 22.2201M24.959 22.2599L24.8514 22.0913C24.8513 22.0914 24.8513 22.0914 24.8512 22.0915M24.959 22.2599L24.8512 22.0915M24.959 22.2599C24.4398 22.5914 23.772 22.89 22.9732 23.1484C22.1577 23.4123 21.3254 23.5465 20.4994 23.5465L16.1483 22.0918M24.8512 22.0915C25.3216 21.7905 25.7254 21.5299 26.0857 21.2946L26.0859 21.2945C26.267 21.1765 26.3817 21.1106 26.4496 21.0745L26.4962 21.0497L26.5489 21.0511C27.0739 21.0652 27.5622 21.1586 28.0005 21.3322L28.0005 21.3322C28.4679 21.5175 28.8704 21.7669 29.1927 22.0756L29.0544 22.2201M24.8512 22.0915C24.3505 22.4111 23.6996 22.7033 22.9117 22.9582L22.9117 22.9582C22.1152 23.2159 21.3037 23.3465 20.4994 23.3465C19.6951 23.3465 18.8837 23.2159 18.0869 22.9579L18.0868 22.9579C17.2995 22.7035 16.6484 22.411 16.1483 22.0918M29.0544 22.2201L29.1927 22.0757C29.5306 22.3993 29.8337 22.7983 30.0954 23.2594L29.9215 23.3581C29.668 22.9114 29.3763 22.5284 29.0544 22.2201ZM16.1483 22.0918C15.6888 21.7981 15.2733 21.5297 14.9129 21.2946C14.7316 21.1762 14.617 21.1106 14.5495 21.0746L14.5028 21.0497L14.4499 21.0511C13.9251 21.0652 13.4368 21.1586 12.9987 21.3322M16.1483 22.0918L31.3883 28.191C31.4253 28.7225 31.4438 29.2774 31.4441 29.8406V29.8408C31.4438 30.9621 31.1258 31.8361 30.4493 32.4806L30.3914 32.5357H30.3899C29.7114 33.1515 28.8268 33.4419 27.7139 33.4419H13.2859C12.1401 33.4419 11.2363 33.1341 10.5506 32.4808L10.5506 32.4808C9.8741 31.836 9.55606 30.9618 9.55606 29.8407C9.55606 29.2742 9.57469 28.7146 9.61214 28.1768C9.64878 27.6457 9.72367 27.0641 9.83428 26.4481C9.9437 25.8381 10.0833 25.2639 10.25 24.7424L10.25 24.7424C10.4115 24.2377 10.6313 23.739 10.9035 23.2592L10.9035 23.2591C11.1652 22.7985 11.4683 22.3995 11.8062 22.0757M16.1483 22.0918C16.1484 22.0918 16.1484 22.0919 16.1484 22.0919L16.0407 22.2604L16.1483 22.0918ZM12.9987 21.3322C12.5312 21.5175 12.1286 21.7667 11.8062 22.0757M12.9987 21.3322C12.9987 21.3323 12.9987 21.3323 12.9986 21.3323L13.0723 21.5182M12.9987 21.3322L13.0723 21.5182M11.8062 22.0757L11.9438 22.2194L11.8062 22.0758C11.8062 22.0758 11.8062 22.0758 11.8062 22.0757ZM13.0723 21.5182C13.4859 21.3542 13.9507 21.2645 14.4552 21.251L13.0723 21.5182ZM15.3496 17.1931C13.9839 15.8259 13.2935 14.1579 13.2935 12.2254C13.2935 10.2933 13.984 8.6252 15.3495 7.25803C16.715 5.89089 18.3808 5.2 20.311 5.2C22.2405 5.2 23.9065 5.89087 25.2723 7.25779C26.6382 8.62543 27.3283 10.2934 27.3283 12.2254C27.3283 14.1579 26.6379 15.8257 25.2726 17.1928C23.9068 18.5602 22.2408 19.2511 20.311 19.2511H20.3109C18.3816 19.2511 16.7156 18.56 15.3496 17.1931ZM15.3496 17.1931L15.2081 17.3344L15.3496 17.1931ZM24.3138 8.21843L24.3137 8.21841C23.1995 7.10308 21.8855 6.55804 20.311 6.55804C18.7361 6.55804 17.4223 7.10307 16.3084 8.21842C15.1941 9.33391 14.6495 10.6493 14.6495 12.2254C14.6495 13.8018 15.1941 15.1172 16.3084 16.2325L16.3084 16.2325C17.4229 17.3478 18.7365 17.8931 20.311 17.8931C21.8855 17.8931 23.1995 17.348 24.3138 16.2325L24.1722 16.0911L24.3138 16.2325C25.4278 15.117 25.9723 13.8018 25.9723 12.2253C25.9723 10.6493 25.4278 9.33392 24.3138 8.21843Z" fill="#997EE7" stroke="#EBE5FA" stroke-width="0.4"/>
</svg>
