<svg width="40" height="40" viewBox="0 0 40 40" fill="none" xmlns="http://www.w3.org/2000/svg">
<path d="M12.2968 24.6639H8.39059C8.28699 24.6639 8.18763 24.7051 8.11438 24.7783C8.04112 24.8516 7.99997 24.951 7.99997 25.0546V32.6094C7.99997 32.713 8.04112 32.8123 8.11438 32.8856C8.18763 32.9588 8.28699 33 8.39059 33H12.2968C12.4004 33 12.4998 32.9588 12.573 32.8856C12.6463 32.8123 12.6875 32.713 12.6875 32.6094V25.0546C12.6875 24.951 12.6463 24.8516 12.573 24.7783C12.4998 24.7051 12.4004 24.6639 12.2968 24.6639ZM11.9062 32.2188H8.78121V25.4452H11.9062V32.2188ZM18.7356 20.3573H14.8294C14.7258 20.3573 14.6264 20.3985 14.5532 20.4718C14.4799 20.545 14.4388 20.6444 14.4388 20.748V32.6094C14.4388 32.713 14.4799 32.8123 14.5532 32.8856C14.6264 32.9588 14.7258 33 14.8294 33H18.7356C18.8392 33 18.9386 32.9588 19.0119 32.8856C19.0851 32.8123 19.1263 32.713 19.1263 32.6094V20.748C19.1263 20.6444 19.0851 20.545 19.0119 20.4718C18.9386 20.3985 18.8392 20.3573 18.7356 20.3573ZM18.345 32.2188H15.22V21.1386H18.345V32.2188ZM25.1744 16.0507H21.2682C21.1646 16.0507 21.0652 16.0918 20.9919 16.1651C20.9187 16.2383 20.8775 16.3377 20.8775 16.4413V32.6094C20.8775 32.713 20.9187 32.8123 20.9919 32.8856C21.0652 32.9588 21.1646 33 21.2682 33H25.1744C25.278 33 25.3774 32.9588 25.4506 32.8856C25.5239 32.8123 25.565 32.713 25.565 32.6094V16.4413C25.565 16.3377 25.5239 16.2383 25.4506 16.1651C25.3774 16.0918 25.278 16.0507 25.1744 16.0507ZM24.7838 32.2188H21.6588V16.8319H24.7838V32.2188ZM32.9145 11.8383L29.9653 8.14681C29.9287 8.10102 29.8822 8.06404 29.8294 8.03863C29.7766 8.01322 29.7187 8.00002 29.6601 8.00002C29.6015 8.00002 29.5436 8.01322 29.4908 8.03863C29.4379 8.06404 29.3915 8.10102 29.3549 8.14681L26.4057 11.8383C26.3598 11.8957 26.3311 11.965 26.3228 12.0381C26.3145 12.1112 26.327 12.1851 26.3589 12.2514C26.3908 12.3177 26.4407 12.3736 26.503 12.4128C26.5653 12.4519 26.6374 12.4727 26.7109 12.4727H27.3164V32.6094C27.3164 32.713 27.3575 32.8123 27.4308 32.8856C27.5041 32.9588 27.6034 33 27.707 33H31.6133C31.7169 33 31.8162 32.9588 31.8895 32.8856C31.9627 32.8123 32.0039 32.713 32.0039 32.6094V12.4727H32.6093C32.6829 12.4727 32.7549 12.452 32.8172 12.4128C32.8795 12.3737 32.9294 12.3177 32.9613 12.2514C32.9932 12.1851 33.0057 12.1112 32.9975 12.0381C32.9892 11.965 32.9604 11.8957 32.9145 11.8383ZM31.6132 11.6915C31.5096 11.6915 31.4103 11.7326 31.337 11.8059C31.2637 11.8792 31.2226 11.9785 31.2226 12.0821V32.2188H28.0976V12.0821C28.0976 11.9785 28.0564 11.8792 27.9832 11.8059C27.9099 11.7326 27.8106 11.6915 27.707 11.6915H27.5229L29.6601 9.01644L31.7972 11.6914L31.6132 11.6915ZM13.5404 12.3907L15.0587 11.006C15.1142 10.9554 15.1539 10.8899 15.1731 10.8173C15.1923 10.7447 15.1901 10.6681 15.1669 10.5967C15.1437 10.5253 15.1004 10.462 15.0422 10.4146C14.984 10.3671 14.9134 10.3375 14.8388 10.3291L12.7966 10.1014L11.9489 8.22953C11.9179 8.16111 11.8679 8.10307 11.8048 8.06236C11.7416 8.02165 11.6681 8 11.593 8C11.5179 8 11.4444 8.02165 11.3813 8.06236C11.3182 8.10307 11.2681 8.16111 11.2372 8.22953L10.3895 10.1014L8.34728 10.3292C8.27264 10.3375 8.20199 10.3672 8.14378 10.4146C8.08557 10.4621 8.04226 10.5253 8.01906 10.5967C7.99585 10.6681 7.99372 10.7447 8.01293 10.8173C8.03214 10.8899 8.07187 10.9554 8.12736 11.006L9.64567 12.3907L9.23121 14.4033C9.21606 14.4768 9.22243 14.5532 9.24957 14.6232C9.2767 14.6932 9.32344 14.754 9.38419 14.7981C9.44495 14.8422 9.51714 14.8679 9.59211 14.8721C9.66709 14.8762 9.74168 14.8587 9.80695 14.8216L11.593 13.8054L13.3792 14.8216C13.4444 14.8587 13.519 14.8763 13.594 14.8721C13.669 14.8679 13.7412 14.8422 13.8019 14.798C13.8627 14.7539 13.9094 14.6932 13.9365 14.6232C13.9637 14.5531 13.97 14.4768 13.9549 14.4032L13.5404 12.3907ZM12.7304 12.3305L13.0157 13.716L11.7862 13.0166C11.7273 12.9831 11.6608 12.9655 11.593 12.9655C11.5253 12.9655 11.4587 12.9831 11.3999 13.0166L10.1704 13.716L10.4557 12.3305C10.4693 12.2642 10.4655 12.1955 10.4446 12.1311C10.4237 12.0667 10.3863 12.0088 10.3363 11.9632L9.29113 11.01L10.6969 10.8532C10.7642 10.8457 10.8284 10.8208 10.8832 10.781C10.938 10.7412 10.9815 10.6878 11.0095 10.6262L11.593 9.33758L12.1766 10.6262C12.2046 10.6878 12.2481 10.7412 12.3029 10.781C12.3577 10.8208 12.4219 10.8457 12.4892 10.8532L13.895 11.01L12.8498 11.9632C12.7998 12.0088 12.7625 12.0667 12.7415 12.1311C12.7206 12.1955 12.7168 12.2642 12.7304 12.3305ZM22.3276 14.8727C22.3856 14.8728 22.4428 14.8599 22.4952 14.835C22.5476 14.8101 22.5938 14.7739 22.6304 14.729C22.6671 14.684 22.6932 14.6315 22.707 14.5752C22.7208 14.5188 22.7219 14.4601 22.7102 14.4033L22.2957 12.3907L23.814 11.006C23.8695 10.9554 23.9092 10.8899 23.9284 10.8173C23.9476 10.7447 23.9454 10.6681 23.9222 10.5967C23.899 10.5253 23.8557 10.4621 23.7975 10.4146C23.7393 10.3672 23.6687 10.3375 23.5941 10.3292L21.5519 10.1014L20.7042 8.22953C20.6733 8.16111 20.6232 8.10307 20.5601 8.06236C20.497 8.02165 20.4235 8 20.3484 8C20.2733 8 20.1998 8.02165 20.1367 8.06236C20.0735 8.10307 20.0235 8.16111 19.9925 8.22953L19.1448 10.1014L17.1026 10.3292C17.028 10.3375 16.9573 10.3672 16.8991 10.4146C16.8409 10.4621 16.7976 10.5253 16.7744 10.5967C16.7512 10.6681 16.7491 10.7447 16.7683 10.8173C16.7875 10.8899 16.8272 10.9554 16.8827 11.006L18.401 12.3907L17.9865 14.4033C17.9714 14.4769 17.9777 14.5533 18.0049 14.6233C18.032 14.6933 18.0787 14.754 18.1395 14.7981C18.2003 14.8423 18.2724 14.868 18.3474 14.8721C18.4224 14.8763 18.497 14.8588 18.5623 14.8216L20.3483 13.8055L22.1344 14.8216C22.1933 14.8551 22.2598 14.8727 22.3276 14.8727ZM20.5415 13.0166C20.4827 12.9831 20.4161 12.9655 20.3484 12.9655C20.2807 12.9655 20.2141 12.9831 20.1552 13.0166L18.9257 13.716L19.211 12.3305C19.2246 12.2642 19.2208 12.1955 19.1999 12.1311C19.179 12.0667 19.1416 12.0088 19.0916 11.9632L18.0464 11.01L19.4522 10.8532C19.5196 10.8457 19.5838 10.8208 19.6386 10.781C19.6933 10.7412 19.7368 10.6878 19.7648 10.6262L20.3483 9.33758L20.9319 10.6262C20.9598 10.6878 21.0033 10.7412 21.0581 10.781C21.1129 10.8208 21.1771 10.8457 21.2444 10.8532L22.6502 11.01L21.6051 11.9632C21.555 12.0088 21.5177 12.0667 21.4968 12.1311C21.4759 12.1955 21.472 12.2642 21.4857 12.3305L21.771 13.716L20.5415 13.0166Z" fill="#997EE7"/>
</svg>
